<svg id="github-2" xmlns="http://www.w3.org/2000/svg" width="27.393" height="27.392" viewBox="0 0 27.393 27.392">
  <path id="Tracé_387" data-name="Tracé 387" d="M13.7,0a13.7,13.7,0,1,0,13.7,13.7A13.7,13.7,0,0,0,13.7,0Zm3.837,24.13c-.079-1.072-.167-2.4-.172-2.937a2.6,2.6,0,0,0-1.075-2.132c3.956-.331,5.838-2.518,5.973-5.407a5.409,5.409,0,0,0-1.7-4.259,23.4,23.4,0,0,0-.118-3.379c-.892-.257-2.972.841-3.553,1.311a11.055,11.055,0,0,0-6.049,0A5.807,5.807,0,0,0,7.269,6.013a4.265,4.265,0,0,0-.12,3.377c-.954.871-2.284,1.944-1.923,4.191.579,3.295,2.9,5.072,6.63,5.507a1.208,1.208,0,0,0-1,1.014c-2.506,1.034-3.223-.639-3.54-1.074-1.052-1.3-2-.924-2.054-.9a.165.165,0,0,0-.093.142c.053.281.626.566.654.589a4.872,4.872,0,0,1,1.241,1.922c1.114,1.831,3.7,1.072,3.727,1.087,0,.16-.018,1.507-.033,2.556a11.13,11.13,0,1,1,6.772-.289Z" fill="#fff"/>
</svg>
